<svg xmlns="http://www.w3.org/2000/svg" viewBox="0 0 100 100">
  <!-- Background circle -->
  <circle cx="50" cy="50" r="50" fill="#1c2e4a"/>
  <!-- Sun -->
  <circle cx="50" cy="32" r="13" fill="#f5c518"/>
  <!-- Sun rays -->
  <line x1="50" y1="10" x2="50" y2="15" stroke="#f5c518" stroke-width="3" stroke-linecap="round"/>
  <line x1="50" y1="49" x2="50" y2="54" stroke="#f5c518" stroke-width="3" stroke-linecap="round"/>
  <line x1="28" y1="32" x2="33" y2="32" stroke="#f5c518" stroke-width="3" stroke-linecap="round"/>
  <line x1="67" y1="32" x2="72" y2="32" stroke="#f5c518" stroke-width="3" stroke-linecap="round"/>
  <line x1="35" y1="17" x2="38" y2="22" stroke="#f5c518" stroke-width="3" stroke-linecap="round"/>
  <line x1="62" y1="42" x2="65" y2="47" stroke="#f5c518" stroke-width="3" stroke-linecap="round"/>
  <line x1="65" y1="17" x2="62" y2="22" stroke="#f5c518" stroke-width="3" stroke-linecap="round"/>
  <line x1="38" y1="42" x2="35" y2="47" stroke="#f5c518" stroke-width="3" stroke-linecap="round"/>
  <!-- Cloud -->
  <ellipse cx="44" cy="58" rx="18" ry="12" fill="#e8edf2"/>
  <ellipse cx="60" cy="60" rx="14" ry="10" fill="#e8edf2"/>
  <ellipse cx="36" cy="62" rx="12" ry="9" fill="#e8edf2"/>
  <!-- Rain drops -->
  <line x1="38" y1="74" x2="35" y2="83" stroke="#5b9bd5" stroke-width="3" stroke-linecap="round"/>
  <line x1="50" y1="74" x2="47" y2="83" stroke="#5b9bd5" stroke-width="3" stroke-linecap="round"/>
  <line x1="62" y1="74" x2="59" y2="83" stroke="#5b9bd5" stroke-width="3" stroke-linecap="round"/>
</svg>
