<svg xmlns="http://www.w3.org/2000/svg" viewBox="0 0 800 200" width="800" height="200">
  <defs>
    <linearGradient id="bgGrad" x1="0" y1="0" x2="1" y2="0">
      <stop offset="0" stop-color="#1a3a5c"/>
      <stop offset="1" stop-color="#0d2137"/>
    </linearGradient>
    <linearGradient id="sunGrad" x1="0" y1="0" x2="1" y2="1">
      <stop offset="0" stop-color="#ffe066"/>
      <stop offset="1" stop-color="#ffb300"/>
    </linearGradient>
    <linearGradient id="cloudGrad" x1="0" y1="0" x2="0" y2="1">
      <stop offset="0" stop-color="#e8f4fd"/>
      <stop offset="1" stop-color="#c5dff0"/>
    </linearGradient>
  </defs>

  <!-- Hatter -->
  <rect width="800" height="200" rx="24" fill="url(#bgGrad)"/>

  <!-- NAP sugarak -->
  <g stroke="#ffe066" stroke-width="4" stroke-linecap="round" opacity="0.7">
    <line x1="100" y1="28" x2="100" y2="14"/>
    <line x1="100" y1="86" x2="100" y2="100"/>
    <line x1="69" y1="57" x2="59" y2="47"/>
    <line x1="131" y1="57" x2="141" y2="47"/>
    <line x1="69" y1="57" x2="59" y2="67"/>
    <line x1="131" y1="57" x2="141" y2="67"/>
    <line x1="57" y1="57" x2="43" y2="57"/>
    <line x1="143" y1="57" x2="157" y2="57"/>
  </g>

  <!-- Nap -->
  <circle cx="100" cy="57" r="24" fill="url(#sunGrad)"/>
  <circle cx="100" cy="57" r="17" fill="#ffcf00"/>

  <!-- Felh -->
  <ellipse cx="52" cy="110" rx="30" ry="22" fill="url(#cloudGrad)"/>
  <ellipse cx="76" cy="100" rx="30" ry="26" fill="url(#cloudGrad)"/>
  <ellipse cx="108" cy="110" rx="32" ry="23" fill="url(#cloudGrad)"/>
  <rect x="28" y="110" width="108" height="34" rx="17" fill="url(#cloudGrad)"/>

  <!-- Anemometer rud -->
  <rect x="93" y="72" width="7" height="74" rx="3" fill="#7eb8e0"/>

  <!-- Anemometer karok -->
  <line x1="96" y1="82" x2="68" y2="72" stroke="#7eb8e0" stroke-width="4" stroke-linecap="round"/>
  <line x1="96" y1="82" x2="114" y2="62" stroke="#7eb8e0" stroke-width="4" stroke-linecap="round"/>
  <line x1="96" y1="82" x2="118" y2="94" stroke="#7eb8e0" stroke-width="4" stroke-linecap="round"/>

  <!-- Anemometer golyok -->
  <circle cx="64" cy="70" r="8" fill="#4a90c4"/>
  <circle cx="118" cy="58" r="8" fill="#4a90c4"/>
  <circle cx="122" cy="96" r="8" fill="#4a90c4"/>
  <circle cx="96" cy="82" r="5" fill="#7eb8e0"/>

  <!-- Talapzat -->
  <rect x="90" y="140" width="14" height="32" rx="4" fill="#4a7fa0"/>
  <rect x="76" y="170" width="40" height="8" rx="4" fill="#4a7fa0"/>

  <!-- Esocsepp -->
  <ellipse cx="34" cy="158" rx="5" ry="8" fill="#5aafee" opacity="0.85"/>
  <ellipse cx="54" cy="170" rx="5" ry="8" fill="#5aafee" opacity="0.75"/>
  <ellipse cx="74" cy="160" rx="5" ry="8" fill="#5aafee" opacity="0.80"/>
  <ellipse cx="122" cy="162" rx="5" ry="8" fill="#5aafee" opacity="0.75"/>
  <ellipse cx="142" cy="150" rx="5" ry="8" fill="#5aafee" opacity="0.80"/>

  <!-- Cim szoveg -->
  <text x="200" y="85" font-family="Arial, sans-serif" font-size="38" font-weight="bold" fill="#e8f4fd" letter-spacing="1">Wunderground</text>
  <text x="200" y="132" font-family="Arial, sans-serif" font-size="30" fill="#7eb8e0" letter-spacing="2">PWS  Integration</text>

  <!-- Verzio es szerzo -->
  <text x="203" y="165" font-family="Arial, sans-serif" font-size="16" fill="#4a7fa0">v1.1.0  |  Keszito: Aiasz</text>

  <!-- Homero -->
  <rect x="720" y="60" width="10" height="60" rx="5" fill="#e05a5a"/>
  <circle cx="725" cy="128" r="14" fill="#e05a5a"/>
  <rect x="723" y="68" width="5" height="46" rx="2" fill="#ff9090"/>

  <!-- Paracsepp -->
  <path d="M752 80 Q752 62 742 70 Q732 80 742 90 Q747 96 752 90 Q757 84 752 80Z" fill="#5aafee" opacity="0.9"/>
</svg>
